<?xml version="1.0" encoding="UTF-8"?>
<svg width="28px" height="28px" viewBox="0 0 28 28" version="1.1" xmlns="http://www.w3.org/2000/svg" xmlns:xlink="http://www.w3.org/1999/xlink">
    <title>icon_fb</title>
    <g id="Done" stroke="none" stroke-width="1" fill="none" fill-rule="evenodd">
        <g id="1.1-Homepage_desktop-A" transform="translate(-240.000000, -7937.000000)" fill="#D5AC5B">
            <g id="icon_fb" transform="translate(240.000000, 7937.000000)">
                <path d="M23,0 C25.7614237,0 28,2.23857625 28,5 L28,23 C28,25.7614237 25.7614237,28 23,28 L5,28 C2.23857625,28 -2.48689958e-14,25.7614237 -2.48689958e-14,23 L-2.48689958e-14,5 C-2.48689958e-14,2.23857625 2.23857625,0 5,0 L23,0 Z M19.1257102,5.09090909 C18.4794034,5.09090909 17.8828125,5.19034091 17.3359375,5.38920455 C16.8014915,5.5756392 16.3447266,5.85839844 15.9656428,6.23748224 C15.5865589,6.61656605 15.2913707,7.08575994 15.0800781,7.64506392 C14.8687855,8.19193892 14.7631392,8.83203125 14.7631392,9.56534091 L14.7631392,12.0635653 L11.8174716,12.0635653 L11.8174716,15.4566761 L14.7631392,15.4566761 L14.7631392,25.4545455 L18.2681108,25.4545455 L18.2681108,15.4566761 L21.1764915,15.4566761 L21.6239347,12.0635653 L18.2681108,12.0635653 L18.2681108,9.9009233 C18.2681108,9.41619318 18.3706499,9.02157315 18.575728,8.71706321 C18.7808061,8.41255327 19.237571,8.2602983 19.9460227,8.2602983 L21.7357955,8.2602983 L21.7357955,5.24005682 C21.5866477,5.20276989 21.2697088,5.1685902 20.7849787,5.13751776 C20.3002486,5.10644531 19.7471591,5.09090909 19.1257102,5.09090909 Z" id="Combined-Shape"></path>
            </g>
        </g>
    </g>
</svg>